<svg width="6" height="7" viewBox="0 0 6 7" fill="none" xmlns="http://www.w3.org/2000/svg">
<g clip-path="url(#clip0_36_68347)">
<path d="M3.46603 4.72679C3.88518 4.67707 4.28937 4.57852 4.67274 4.437C4.35486 4.08415 4.16138 3.61702 4.16138 3.10471V2.94966C4.16141 2.94604 4.16142 2.94241 4.16142 2.93878C4.16142 2.20565 3.5671 1.61133 2.83397 1.61133C2.10084 1.61133 1.50652 2.20565 1.50652 2.93878L1.50648 3.10471C1.50648 3.61702 1.313 4.08415 0.995117 4.437C1.37851 4.57853 1.78273 4.67708 2.20191 4.7268M3.46603 4.72679C3.25875 4.75137 3.04782 4.76402 2.83393 4.76402C2.62007 4.76402 2.40916 4.75138 2.20191 4.7268M3.46603 4.72679C3.48659 4.79082 3.4977 4.85909 3.4977 4.92995C3.4977 5.29652 3.20054 5.59368 2.83397 5.59368C2.46741 5.59368 2.17025 5.29652 2.17025 4.92995C2.17025 4.85909 2.18135 4.79083 2.20191 4.7268" stroke="#FFFFFF" stroke-width="0.331862" stroke-linecap="round" stroke-linejoin="round"/>
</g>
<defs>
<clipPath id="clip0_36_68347">
<rect width="5.3098" height="5.3098" fill="white" transform="translate(0.178711 0.947754)"/>
</clipPath>
</defs>
</svg>
