<svg width="6" height="6" viewBox="0 0 6 6" fill="none" xmlns="http://www.w3.org/2000/svg">
<g clip-path="url(#clip0_36_67986)">
<path fill-rule="evenodd" clip-rule="evenodd" d="M2.09244 0.868484C1.90915 0.868484 1.76057 1.01706 1.76057 1.20035L1.76057 4.18711C1.76057 4.37039 1.90915 4.51897 2.09244 4.51897H3.41989C3.60317 4.51897 3.75175 4.37039 3.75175 4.18711V3.35745C3.75175 3.26581 3.82604 3.19152 3.91768 3.19152C4.00932 3.19152 4.08361 3.26581 4.08361 3.35745V4.18711C4.08361 4.55367 3.78645 4.85083 3.41989 4.85083H2.09244C1.72587 4.85083 1.42871 4.55367 1.42871 4.18711L1.42871 1.20035C1.42871 0.833781 1.72587 0.536621 2.09244 0.536621L3.41989 0.536621C3.78645 0.536621 4.08361 0.833781 4.08361 1.20035V2.03C4.08361 2.12164 4.00932 2.19593 3.91768 2.19593C3.82604 2.19593 3.75175 2.12164 3.75175 2.03V1.20035C3.75175 1.01706 3.60317 0.868484 3.41989 0.868484L2.09244 0.868484ZM4.46407 1.91267C4.52887 1.84787 4.63394 1.84787 4.69874 1.91267L5.36246 2.5764C5.42726 2.6412 5.42726 2.74626 5.36246 2.81106L4.69874 3.47478C4.63393 3.53958 4.52887 3.53958 4.46407 3.47478C4.39927 3.40998 4.39927 3.30492 4.46407 3.24012L4.84454 2.85966L2.4243 2.85966C2.33266 2.85966 2.25837 2.78537 2.25837 2.69373C2.25837 2.60209 2.33266 2.5278 2.4243 2.5278L4.84454 2.5278L4.46407 2.14733C4.39927 2.08253 4.39927 1.97747 4.46407 1.91267Z" fill="#60A5FA"/>
</g>
<defs>
<clipPath id="clip0_36_67986">
<rect width="5.3098" height="5.3098" fill="white" transform="translate(0.433594 0.0390625)"/>
</clipPath>
</defs>
</svg>
